<mxfile host="app.diagrams.net" modified="2023-11-26T06:19:40.056Z" agent="Mozilla/5.0 (Windows NT 10.0; Win64; x64) AppleWebKit/537.36 (KHTML, like Gecko) Chrome/119.0.0.0 Safari/537.36" version="22.1.4" etag="rjc7Wm1_3V3YzwcoYGLK" type="github">
  <diagram name="Halaman-1" id="Aw60ZPR7romcEwq21p-f">
    <mxGraphModel>
      <root>
        <mxCell id="0" />
        <mxCell id="1" parent="0" />
      </root>
    </mxGraphModel>
  </diagram>
</mxfile>
